# xmcd
#
# Track frame offsets: 
#        150
#        14409
#        30768
#        48657
#        64587
#        80740
#        99840
#        117200
#        133106
#        152523
#        168710
#        187292
#        204009
#        219805
#        233994
#        252697
#        263431
#        281162
#        297530
#        312584
#        339936
#
# Disc length: 4795 seconds
#
# Revision: 0
# Processed by: cddbd v1.5.2PL0 Copyright (c) Steve Scherf et al.
# Submitted via: ExactAudioCopy v1.0b3
#
DISCID=3112b915
DTITLE=Various Artist - Trance Arena Vol. 5 - CD 2
DYEAR=1900
DGENRE=
TTITLE0=Special D - Nothing I Won't Do (Single Edit)
TTITLE1=Gigi D'Agostino - Silence (Edit)
TTITLE2=Pulsedriver - Beat Bangs! (Edit)
TTITLE3=Starsplash - Alive (Radio Edit)
TTITLE4=Rocco - One, Two, Three (Album Edit)
TTITLE5=Kai Tracid - Conscious (Kan Cold Mix Edit)
TTITLE6=Lichtenfels Feat. Phil and Inusa - Kill The Silence (Radio Edit)
TTITLE7=Dickheadz - Wir Brauchen Bass (Single Edit)
TTITLE8=General Base - Base Of Love (Rebased)
TTITLE9=Stacccato - Can't You See (Get Up) (Club Edit)
TTITLE10=DJ Scot Project - Fm (Feelin' Me) (Airplay Edit)
TTITLE11=E.D.T. - Beatin' Of A Drum (Edit)
TTITLE12=Re-Flex - Abulle (Original Club Edit)
TTITLE13=Potatoheadz Feat. Da Rock MC - Get Down (Radio Edit)
TTITLE14=Jens - Loops and Tings (Relooped) (Marco V Mix Edit)
TTITLE15=DJ Errik - Fast Cars and Bitches (Pierre Deutschmann Mix Edit)
TTITLE16=Mellow Trax Vs. INXS - Mystify (Airplay Edit)
TTITLE17=Oliver Moldan - Gonna Make You Sweat (Radio Edit)
TTITLE18=Moguai - Freaks (Radio Short Mix)
TTITLE19=DJ Tocadisco - Nobody (Likes The Records That I Play) (Nobody
TTITLE19=Radio Version)
TTITLE20=Daten-CD
EXTD=
EXTT0=
EXTT1=
EXTT2=
EXTT3=
EXTT4=
EXTT5=
EXTT6=
EXTT7=
EXTT8=
EXTT9=
EXTT10=
EXTT11=
EXTT12=
EXTT13=
EXTT14=
EXTT15=
EXTT16=
EXTT17=
EXTT18=
EXTT19=
EXTT20=
PLAYORDER=
